<svg width="32" height="32" viewBox="0 0 32 32" fill="none" xmlns="http://www.w3.org/2000/svg">
<path d="M27 0H5C2.23858 0 0 2.23858 0 5V27C0 29.7614 2.23858 32 5 32H27C29.7614 32 32 29.7614 32 27V5C32 2.23858 29.7614 0 27 0Z" fill="#1F68F5"/>
<g clip-path="url(#clip0)">
<path d="M14.5563 11.7779C12.7888 13.6066 13.1745 16.6414 15.1991 17.9857C15.2658 18.0301 15.3546 18.0213 15.4119 17.9653C15.8381 17.5488 16.1987 17.1454 16.5144 16.6324C16.5627 16.5539 16.5327 16.452 16.4516 16.4081C16.1428 16.2408 15.8355 15.9271 15.6625 15.5958L15.6623 15.5959C15.4551 15.1832 15.3846 14.7207 15.4943 14.243C15.4944 14.243 15.4945 14.2431 15.4946 14.2431C15.6209 13.6315 16.2774 13.0626 16.7789 12.5364C16.7778 12.5361 16.7768 12.5357 16.7758 12.5353L18.6546 10.6177C19.4034 9.85351 20.635 9.84721 21.3915 10.6037C22.1557 11.3525 22.1683 12.5903 21.4196 13.3544L20.2815 14.5247C20.2288 14.5789 20.2118 14.6579 20.2364 14.7293C20.4984 15.4892 20.5629 16.5606 20.3873 17.3701C20.3824 17.3928 20.4103 17.4076 20.4265 17.391L22.8487 14.9189C24.396 13.3397 24.3828 10.7685 22.8195 9.20518C21.2241 7.60975 18.6268 7.62302 17.0477 9.23463L14.566 11.7676C14.5627 11.771 14.5596 11.7745 14.5563 11.7779V11.7779Z" fill="white"/>
<path d="M19.0837 18.334C19.0837 18.3341 19.0836 18.3342 19.0836 18.3342C19.0852 18.3336 19.0866 18.333 19.0882 18.3323C19.5825 17.4284 19.6798 16.3918 19.4481 15.3812L19.4471 15.3823L19.4459 15.3818C19.2259 14.4817 18.6224 13.5879 17.8026 13.0376C17.7321 12.9903 17.6195 12.9958 17.5534 13.0492C17.1382 13.3849 16.7318 13.8154 16.4636 14.3649C16.4215 14.4511 16.453 14.5547 16.536 14.6029C16.8472 14.7836 17.1283 15.0482 17.3165 15.3994L17.3168 15.3992C17.4635 15.6473 17.608 16.1181 17.5144 16.6239C17.5143 16.6239 17.5142 16.6239 17.5142 16.6239C17.4268 17.2945 16.7496 17.9097 16.2112 18.464L16.2115 18.4643C15.8017 18.8833 14.7599 19.9454 14.3428 20.3715C13.5941 21.1357 12.3562 21.1483 11.5921 20.3996C10.8279 19.6509 10.8153 18.4131 11.564 17.6489L12.7054 16.4751C12.7571 16.4219 12.7747 16.3446 12.7517 16.274C12.4983 15.4964 12.4288 14.4491 12.5888 13.6405C12.5933 13.618 12.5655 13.6036 12.5495 13.62L10.1638 16.055C8.60061 17.6504 8.61386 20.248 10.1933 21.8273C11.7886 23.3904 14.3728 23.364 15.9359 21.7687C16.4789 21.1613 18.8034 19.0091 19.0837 18.334V18.334Z" fill="white"/>
</g>
<defs>
<clipPath id="clip0">
<rect width="15" height="15" fill="white" transform="translate(9 8)"/>
</clipPath>
</defs>
</svg>
