<svg>
    <symbol id="icon-1" viewBox="0 0 32 32" xmlns="http://www.w3.org/2000/svg">
        <g><path d="M16,2A14,14,0,1,0,30,16,14,14,0,0,0,16,2Zm0,26A12,12,0,1,1,28,16,12,12,0,0,1,16,28Z"/><path d="M17,7H15v8.52a2,2,0,0,0,.75,1.56l4.63,3.7,1.24-1.56L17,15.52Z"/></g>
    </symbol>
    <symbol id="check2-circle" xmlns="http://www.w3.org/2000/svg" width="16" height="16" fill="currentColor" class="bi bi-check2-circle" viewBox="0 0 16 16">
        <path d="M2.5 8a5.5 5.5 0 0 1 8.25-4.764.5.5 0 0 0 .5-.866A6.5 6.5 0 1 0 14.5 8a.5.5 0 0 0-1 0 5.5 5.5 0 1 1-11 0z"/>
        <path d="M15.354 3.354a.5.5 0 0 0-.708-.708L8 9.293 5.354 6.646a.5.5 0 1 0-.708.708l3 3a.5.5 0 0 0 .708 0l7-7z"/>
    </symbol>
    <symbol id="whatsapp" xmlns="http://www.w3.org/2000/svg" fill="currentColor" class="bi bi-whatsapp" viewBox="0 0 16 16">
        <path d="M13.601 2.326A7.854 7.854 0 0 0 7.994 0C3.627 0 .068 3.558.064 7.926c0 1.399.366 2.76 1.057 3.965L0 16l4.204-1.102a7.933 7.933 0 0 0 3.79.965h.004c4.368 0 7.926-3.558 7.93-7.93A7.898 7.898 0 0 0 13.6 2.326zM7.994 14.521a6.573 6.573 0 0 1-3.356-.92l-.24-.144-2.494.654.666-2.433-.156-.251a6.56 6.56 0 0 1-1.007-3.505c0-3.626 2.957-6.584 6.591-6.584a6.56 6.56 0 0 1 4.66 1.931 6.557 6.557 0 0 1 1.928 4.66c-.004 3.639-2.961 6.592-6.592 6.592zm3.615-4.934c-.197-.099-1.17-.578-1.353-.646-.182-.065-.315-.099-.445.099-.133.197-.513.646-.627.775-.114.133-.232.148-.43.05-.197-.1-.836-.308-1.592-.985-.59-.525-.985-1.175-1.103-1.372-.114-.198-.011-.304.088-.403.087-.088.197-.232.296-.346.1-.114.133-.198.198-.33.065-.134.034-.248-.015-.347-.05-.099-.445-1.076-.612-1.47-.16-.389-.323-.335-.445-.34-.114-.007-.247-.007-.38-.007a.729.729 0 0 0-.529.247c-.182.198-.691.677-.691 1.654 0 .977.71 1.916.81 2.049.098.133 1.394 2.132 3.383 2.992.47.205.84.326 1.129.418.475.152.904.129 1.246.08.38-.058 1.171-.48 1.338-.943.164-.464.164-.86.114-.943-.049-.084-.182-.133-.38-.232z"/>
    </symbol>
    <symbol id="telegram" xmlns="http://www.w3.org/2000/svg"  fill="currentColor" class="bi bi-telegram" viewBox="0 0 16 16">
        <path d="M16 8A8 8 0 1 1 0 8a8 8 0 0 1 16 0zM8.287 5.906c-.778.324-2.334.994-4.666 2.01-.378.15-.577.298-.595.442-.03.243.275.339.69.47l.175.055c.408.133.958.288 1.243.294.26.006.549-.1.868-.32 2.179-1.471 3.304-2.214 3.374-2.23.05-.012.12-.026.166.016.047.041.042.12.037.141-.03.129-1.227 1.241-1.846 1.817-.193.18-.33.307-.358.336a8.154 8.154 0 0 1-.188.186c-.38.366-.664.64.015 1.088.327.216.589.393.85.571.284.194.568.387.936.629.093.06.183.125.27.187.331.236.63.448.997.414.214-.02.435-.22.547-.82.265-1.417.786-4.486.906-5.751a1.426 1.426 0 0 0-.013-.315.337.337 0 0 0-.114-.217.526.526 0 0 0-.31-.093c-.3.005-.763.166-2.984 1.09z"/>
    </symbol>
    <symbol id="whatsappGreenAn" xmlns="http://www.w3.org/2000/svg" width="100" height="100" x="0px" y="0px"  viewBox="0 0 16 16">
        <path fill="#fff" d="M4.9,43.3l2.7-9.8C5.9,30.6,5,27.3,5,24C5,13.5,13.5,5,24,5c5.1,0,9.8,2,13.4,5.6	C41,14.2,43,18.9,43,24c0,10.5-8.5,19-19,19c0,0,0,0,0,0h0c-3.2,0-6.3-0.8-9.1-2.3L4.9,43.3z"></path><path fill="#fff" d="M4.9,43.8c-0.1,0-0.3-0.1-0.4-0.1c-0.1-0.1-0.2-0.3-0.1-0.5L7,33.5c-1.6-2.9-2.5-6.2-2.5-9.6	C4.5,13.2,13.3,4.5,24,4.5c5.2,0,10.1,2,13.8,5.7c3.7,3.7,5.7,8.6,5.7,13.8c0,10.7-8.7,19.5-19.5,19.5c-3.2,0-6.3-0.8-9.1-2.3	L5,43.8C5,43.8,4.9,43.8,4.9,43.8z"></path><path fill="#cfd8dc" d="M24,5c5.1,0,9.8,2,13.4,5.6C41,14.2,43,18.9,43,24c0,10.5-8.5,19-19,19h0c-3.2,0-6.3-0.8-9.1-2.3	L4.9,43.3l2.7-9.8C5.9,30.6,5,27.3,5,24C5,13.5,13.5,5,24,5 M24,43L24,43L24,43 M24,43L24,43L24,43 M24,4L24,4C13,4,4,13,4,24	c0,3.4,0.8,6.7,2.5,9.6L3.9,43c-0.1,0.3,0,0.7,0.3,1c0.2,0.2,0.4,0.3,0.7,0.3c0.1,0,0.2,0,0.3,0l9.7-2.5c2.8,1.5,6,2.2,9.2,2.2	c11,0,20-9,20-20c0-5.3-2.1-10.4-5.8-14.1C34.4,6.1,29.4,4,24,4L24,4z"></path><path fill="#40c351" d="M35.2,12.8c-3-3-6.9-4.6-11.2-4.6C15.3,8.2,8.2,15.3,8.2,24c0,3,0.8,5.9,2.4,8.4L11,33l-1.6,5.8	l6-1.6l0.6,0.3c2.4,1.4,5.2,2.2,8,2.2h0c8.7,0,15.8-7.1,15.8-15.8C39.8,19.8,38.2,15.8,35.2,12.8z"></path><path fill="#fff" fill-rule="evenodd" d="M19.3,16c-0.4-0.8-0.7-0.8-1.1-0.8c-0.3,0-0.6,0-0.9,0	s-0.8,0.1-1.3,0.6c-0.4,0.5-1.7,1.6-1.7,4s1.7,4.6,1.9,4.9s3.3,5.3,8.1,7.2c4,1.6,4.8,1.3,5.7,1.2c0.9-0.1,2.8-1.1,3.2-2.3	c0.4-1.1,0.4-2.1,0.3-2.3c-0.1-0.2-0.4-0.3-0.9-0.6s-2.8-1.4-3.2-1.5c-0.4-0.2-0.8-0.2-1.1,0.2c-0.3,0.5-1.2,1.5-1.5,1.9	c-0.3,0.3-0.6,0.4-1,0.1c-0.5-0.2-2-0.7-3.8-2.4c-1.4-1.3-2.4-2.8-2.6-3.3c-0.3-0.5,0-0.7,0.2-1c0.2-0.2,0.5-0.6,0.7-0.8	c0.2-0.3,0.3-0.5,0.5-0.8c0.2-0.3,0.1-0.6,0-0.8C20.6,19.3,19.7,17,19.3,16z" clip-rule="evenodd"></path>
    </symbol>
    <symbol xmlns="http://www.w3.org/2000/svg" x="0px" y="0px" width="30" height="30" viewBox="0 0 16 16">
        <path fill="#29b6f6" d="M24,4C13,4,4,13,4,24s9,20,20,20s20-9,20-20S35,4,24,4z"></path><path fill="#fff" d="M34,15l-3.7,19.1c0,0-0.2,0.9-1.2,0.9c-0.6,0-0.9-0.3-0.9-0.3L20,28l-4-2l-5.1-1.4c0,0-0.9-0.3-0.9-1	c0-0.6,0.9-0.9,0.9-0.9l21.3-8.5c0,0,0.7-0.2,1.1-0.2c0.3,0,0.6,0.1,0.6,0.5C34,14.8,34,15,34,15z"></path><path fill="#b0bec5" d="M23,30.5l-3.4,3.4c0,0-0.1,0.1-0.3,0.1c-0.1,0-0.1,0-0.2,0l1-6L23,30.5z"></path><path fill="#cfd8dc" d="M29.9,18.2c-0.2-0.2-0.5-0.3-0.7-0.1L16,26c0,0,2.1,5.9,2.4,6.9c0.3,1,0.6,1,0.6,1l1-6l9.8-9.1	C30,18.7,30.1,18.4,29.9,18.2z"></path>
    </symbol>
</svg>