<svg width="22" height="22" viewBox="0 0 22 22" fill="none" xmlns="http://www.w3.org/2000/svg">
<path d="M20.3811 3.66661C20.3811 5.31201 19.0474 6.64589 17.402 6.64589C15.7566 6.64589 14.4229 5.31201 14.4229 3.66661C14.4229 2.02138 15.7566 0.6875 17.402 0.6875C19.0474 0.6875 20.3811 2.02138 20.3811 3.66661V3.66661Z" fill="#1F68F5"/>
<path d="M17.402 7.33339C15.3797 7.33339 13.7354 5.68883 13.7354 3.66661C13.7354 1.64456 15.3797 0 17.402 0C19.4242 0 21.0686 1.64456 21.0686 3.66661C21.0686 5.68883 19.4242 7.33339 17.402 7.33339ZM17.402 1.375C16.1379 1.375 15.1104 2.40356 15.1104 3.66661C15.1104 4.92982 16.1379 5.95839 17.402 5.95839C18.666 5.95839 19.6936 4.92982 19.6936 3.66661C19.6936 2.40356 18.666 1.375 17.402 1.375Z" fill="#1F68F5"/>
<path d="M20.3811 18.3334C20.3811 19.9786 19.0474 21.3125 17.402 21.3125C15.7566 21.3125 14.4229 19.9786 14.4229 18.3334C14.4229 16.688 15.7566 15.3541 17.402 15.3541C19.0474 15.3541 20.3811 16.688 20.3811 18.3334V18.3334Z" fill="#1F68F5"/>
<path d="M17.402 22C15.3797 22 13.7354 20.3555 13.7354 18.3334C13.7354 16.3112 15.3797 14.6666 17.402 14.6666C19.4242 14.6666 21.0686 16.3112 21.0686 18.3334C21.0686 20.3555 19.4242 22 17.402 22ZM17.402 16.0416C16.1379 16.0416 15.1104 17.0702 15.1104 18.3334C15.1104 19.5965 16.1379 20.625 17.402 20.625C18.666 20.625 19.6936 19.5965 19.6936 18.3334C19.6936 17.0702 18.666 16.0416 17.402 16.0416V16.0416Z" fill="#1F68F5"/>
<path d="M7.54823 11C7.54823 12.6454 6.21436 13.9791 4.56895 13.9791C2.92372 13.9791 1.58984 12.6454 1.58984 11C1.58984 9.35458 2.92372 8.02087 4.56895 8.02087C6.21436 8.02087 7.54823 9.35458 7.54823 11Z" fill="#1F68F5"/>
<path d="M4.56895 14.6666C2.54691 14.6666 0.902344 13.0222 0.902344 11C0.902344 8.97777 2.54691 7.33337 4.56895 7.33337C6.59117 7.33337 8.23573 8.97777 8.23573 11C8.23573 13.0222 6.59117 14.6666 4.56895 14.6666ZM4.56895 8.70837C3.3049 8.70837 2.27734 9.73677 2.27734 11C2.27734 12.2632 3.3049 13.2916 4.56895 13.2916C5.83318 13.2916 6.86073 12.2632 6.86073 11C6.86073 9.73677 5.83318 8.70837 4.56895 8.70837Z" fill="#1F68F5"/>
<path d="M6.73301 10.5601C6.41393 10.5601 6.10409 10.3941 5.9354 10.0971C5.68514 9.65806 5.83923 9.09796 6.27831 8.84669L14.7839 3.9976C15.223 3.74549 15.7831 3.89958 16.0344 4.34034C16.2847 4.77943 16.1306 5.33953 15.6915 5.5908L7.18569 10.4399C7.04269 10.5215 6.88693 10.5601 6.73301 10.5601V10.5601Z" fill="#1F68F5"/>
<path d="M15.2378 18.1227C15.0837 18.1227 14.928 18.084 14.7849 18.0025L6.27916 13.1534C5.84008 12.9031 5.68616 12.343 5.93642 11.9029C6.18567 11.463 6.74662 11.3081 7.18671 11.5602L15.6925 16.4093C16.1316 16.6595 16.2855 17.2196 16.0352 17.6597C15.8657 17.9566 15.5559 18.1227 15.2378 18.1227V18.1227Z" fill="#1F68F5"/>
</svg>
