<svg width="32" height="32" viewBox="0 0 32 32" fill="none" xmlns="http://www.w3.org/2000/svg">
<path d="M27 0H5C2.23858 0 0 2.23858 0 5V27C0 29.7614 2.23858 32 5 32H27C29.7614 32 32 29.7614 32 27V5C32 2.23858 29.7614 0 27 0Z" fill="#7C509A"/>
<path d="M20.3839 7.42724C17.4799 6.85759 14.4642 6.85759 11.5602 7.42724C10.2757 7.71206 8.6562 9.30708 8.37696 10.5603C7.87435 13.0098 7.87435 15.5163 8.37696 17.9657C8.71204 19.219 10.3316 20.814 11.5602 21.0988C11.6161 21.0988 11.6719 21.1558 11.6719 21.2127V24.8015C11.6719 24.9724 11.8953 25.0864 12.007 24.9155L13.6824 23.1496C13.6824 23.1496 15.0227 21.7254 15.2461 21.4976C15.2461 21.4976 15.3019 21.4406 15.3578 21.4406C17.0332 21.4976 18.7644 21.3267 20.4398 21.0419C21.7243 20.757 23.3438 19.162 23.623 17.9088C24.1257 15.4593 24.1257 12.9528 23.623 10.5033C23.288 9.30708 21.6684 7.71206 20.3839 7.42724ZM20.4398 18.1366C20.1606 18.7063 19.8255 19.162 19.267 19.4468C19.0995 19.5038 18.9319 19.5608 18.7644 19.6177C18.541 19.5608 18.3735 19.5038 18.2059 19.4468C16.4188 18.7063 14.7435 17.6809 13.4031 16.1998C12.6771 15.3454 12.0628 14.377 11.5602 13.3516C11.3368 12.8389 11.1134 12.3832 10.9459 11.8705C10.7784 11.4148 11.0576 10.9591 11.3368 10.6173C11.6161 10.2755 11.9511 10.0476 12.3421 9.87673C12.6213 9.70583 12.9005 9.81976 13.1239 10.0476C13.5707 10.6173 14.0175 11.1869 14.3525 11.8135C14.5759 12.2123 14.5201 12.668 14.1291 12.9528C14.0175 13.0098 13.9616 13.0668 13.8499 13.1807C13.7941 13.2377 13.6824 13.2946 13.6265 13.4086C13.5148 13.5794 13.5148 13.7503 13.5707 13.9212C14.0175 15.2314 14.8551 16.2568 16.1396 16.8264C16.363 16.9404 16.5305 16.9973 16.8098 16.9973C17.2007 16.9404 17.3682 16.4847 17.6475 16.2568C17.9267 16.0289 18.2618 16.0289 18.5969 16.1998C18.8761 16.3707 19.1553 16.5986 19.4904 16.8264C19.7696 17.0543 20.0489 17.2252 20.3281 17.4531C20.4956 17.567 20.5515 17.8518 20.4398 18.1366ZM18.0942 13.8643C18.0384 13.8643 17.9825 13.8643 18.0942 13.8643C17.8709 13.8643 17.815 13.7503 17.7592 13.5794C17.7592 13.4655 17.7592 13.2946 17.7033 13.1807C17.6475 12.9528 17.5358 12.725 17.3124 12.5541C17.2007 12.4971 17.089 12.4401 16.9773 12.3832C16.8098 12.3262 16.6981 12.3262 16.5305 12.3262C16.363 12.2693 16.3072 12.1553 16.3072 11.9844C16.3072 11.8705 16.4747 11.7566 16.5864 11.7566C17.4799 11.8135 18.1501 12.3262 18.2618 13.4086C18.2618 13.4655 18.2618 13.5794 18.2618 13.6364C18.2618 13.7503 18.2059 13.8643 18.0942 13.8643ZM17.5358 11.3578C17.2565 11.2439 16.9773 11.13 16.6422 11.073C16.5305 11.073 16.363 11.016 16.2513 11.016C16.0838 11.016 15.9721 10.9021 16.0279 10.7312C16.0279 10.5603 16.1396 10.4464 16.3072 10.5033C16.8656 10.5603 17.3682 10.6742 17.8709 10.9021C18.8761 11.4148 19.4346 12.2693 19.6021 13.4086C19.6021 13.4655 19.6021 13.5225 19.6021 13.5794C19.6021 13.6934 19.6021 13.8073 19.6021 13.9782C19.6021 14.0352 19.6021 14.0921 19.6021 14.1491C19.5462 14.377 19.1553 14.4339 19.0995 14.1491C19.0995 14.0921 19.0436 13.9782 19.0436 13.9212C19.0436 13.4086 18.9319 12.8959 18.7086 12.4401C18.3735 11.9275 17.9825 11.5857 17.5358 11.3578ZM20.5515 14.7757C20.3839 14.7757 20.2723 14.6048 20.2723 14.4339C20.2723 14.0921 20.2164 13.7503 20.1606 13.4086C19.9372 11.5857 18.4852 10.1046 16.7539 9.81976C16.4747 9.7628 16.1955 9.7628 15.9721 9.70583C15.8045 9.70583 15.5812 9.70583 15.5253 9.47797C15.4695 9.30708 15.637 9.13618 15.8045 9.13618C15.8604 9.13618 15.9162 9.13618 15.9162 9.13618C16.0279 9.13618 18.2059 9.19315 15.9162 9.13618C18.2618 9.19315 20.2164 10.7882 20.6073 13.1807C20.6632 13.5794 20.719 13.9782 20.719 14.4339C20.8307 14.6048 20.719 14.7757 20.5515 14.7757Z" fill="white"/>
</svg>
