<svg width="32" height="32" viewBox="0 0 32 32" fill="none" xmlns="http://www.w3.org/2000/svg">
<path d="M27 0H5C2.23858 0 0 2.23858 0 5V27C0 29.7614 2.23858 32 5 32H27C29.7614 32 32 29.7614 32 27V5C32 2.23858 29.7614 0 27 0Z" fill="#7294C7"/>
<path d="M24.0548 19.9726C24.0548 19.9041 23.9863 19.9041 23.9863 19.8356C23.7123 19.2877 23.0959 18.6027 22.274 17.8493C21.863 17.5069 21.6575 17.2329 21.5206 17.0959C21.3151 16.8219 21.3151 16.6164 21.3836 16.3425C21.4521 16.137 21.726 15.7945 22.2055 15.1781C22.4795 14.8356 22.6164 14.6301 22.8219 14.4247C23.8493 13.0548 24.3288 12.1644 24.1918 11.7534L24.1233 11.6849C24.0548 11.6164 23.9863 11.5479 23.8493 11.5479C23.7123 11.4795 23.5069 11.4795 23.3014 11.5479H20.6986C20.6302 11.5479 20.6301 11.5479 20.4932 11.5479C20.4247 11.5479 20.3562 11.5479 20.3562 11.5479H20.2877H20.2192L20.1507 11.6164C20.0822 11.6849 20.0822 11.6849 20.0822 11.7534C19.8082 12.5068 19.4658 13.1233 19.1233 13.8082C18.9178 14.1507 18.7123 14.4932 18.5069 14.7671C18.3014 15.0411 18.1644 15.2466 18.0274 15.3836C17.8904 15.5205 17.7534 15.589 17.6849 15.726C17.6164 15.7945 17.4795 15.863 17.4795 15.7945C17.411 15.7945 17.3425 15.7945 17.3425 15.726C17.274 15.6575 17.2055 15.589 17.137 15.5205C17.0685 15.4521 17.0685 15.3151 17 15.1781C17 15.0411 17 14.9041 17 14.8356C17 14.7671 17 14.5616 17 14.4247C17 14.2192 17 14.0822 17 14.0137C17 13.8082 17 13.5343 17 13.2603C17 12.9863 17 12.7808 17 12.6438C17 12.5068 17 12.3014 17 12.1644C17 11.9589 17 11.8219 17 11.7534C17 11.6849 16.9315 11.5479 16.9315 11.4795C16.863 11.411 16.7945 11.3425 16.726 11.274C16.6575 11.2055 16.5206 11.2055 16.4521 11.137C16.1096 11.0685 15.6986 11 15.2192 11C14.1233 11 13.3699 11.0685 13.0959 11.2055C12.9589 11.274 12.8219 11.3425 12.7534 11.4795C12.6164 11.6164 12.6164 11.6849 12.6849 11.6849C13.0274 11.7534 13.3014 11.8904 13.4384 12.0959L13.5069 12.2329C13.5754 12.3014 13.5753 12.4384 13.6438 12.6438C13.7123 12.8493 13.7123 13.0548 13.7123 13.3288C13.7123 13.7397 13.7123 14.1507 13.7123 14.4247C13.7123 14.7671 13.6438 14.9726 13.6438 15.1781C13.6438 15.3836 13.5754 15.5205 13.5069 15.589C13.4384 15.726 13.4384 15.7945 13.3699 15.7945C13.3699 15.7945 13.3699 15.863 13.3014 15.863C13.2329 15.863 13.1644 15.9315 13.0274 15.9315C12.9589 15.9315 12.8219 15.863 12.7534 15.7945C12.6164 15.726 12.4795 15.589 12.411 15.4521C12.274 15.3151 12.137 15.1096 12 14.8356C11.863 14.5616 11.6575 14.2877 11.5205 13.8767L11.3836 13.6027C11.3151 13.4658 11.1781 13.1918 11.0411 12.8493C10.9041 12.5068 10.7671 12.2329 10.6301 11.8904C10.5616 11.7534 10.4932 11.6849 10.4247 11.6164H10.3562C10.3562 11.6164 10.2877 11.5479 10.2192 11.5479C10.1507 11.5479 10.0822 11.4795 10.0137 11.4795H7.54795C7.27397 11.4795 7.13699 11.5479 7.0685 11.6164L7 11.6849C7 11.6849 7 11.7534 7 11.8219C7 11.8904 7 11.9589 7.0685 12.0959C7.41096 12.9178 7.82192 13.7397 8.23288 14.5616C8.64384 15.3151 9.0548 16 9.32877 16.4795C9.67124 16.9589 9.94521 17.4384 10.2877 17.8493C10.6301 18.2603 10.8356 18.5342 10.9041 18.6712C11.0411 18.8082 11.1096 18.8767 11.1781 18.9452L11.3836 19.1507C11.5206 19.2877 11.726 19.4932 12 19.6986C12.274 19.9041 12.6164 20.1096 12.9589 20.3151C13.3014 20.5205 13.7123 20.6575 14.1233 20.7945C14.6028 20.9315 15.0137 21 15.4247 20.9315H16.4521C16.6575 20.9315 16.7945 20.863 16.9315 20.726L17 20.6575C17 20.589 17.0685 20.589 17.0685 20.5205C17.0685 20.4521 17.0685 20.3836 17.0685 20.2466C17.0685 19.9726 17.0685 19.7671 17.137 19.5616C17.2055 19.3562 17.2055 19.2192 17.274 19.0822C17.3425 18.9452 17.411 18.8767 17.4795 18.8082C17.548 18.7397 17.6165 18.6712 17.6165 18.6712H17.6849C17.8219 18.6027 18.0274 18.6712 18.1644 18.8082C18.3699 18.9452 18.5753 19.1507 18.7123 19.3562C18.8493 19.5616 19.0548 19.7671 19.3288 20.0411C19.6028 20.3151 19.8082 20.5206 19.9452 20.589L20.1507 20.726C20.2877 20.7945 20.4247 20.863 20.6302 20.9315C20.8356 21 20.9726 21 21.1096 21L23.4384 20.9315C23.6439 20.9315 23.8493 20.863 23.9863 20.7945C24.1233 20.726 24.1918 20.6575 24.1918 20.5205C24.1918 20.4521 24.1918 20.3151 24.1918 20.2466C24.0548 20.1096 24.0548 20.0411 24.0548 19.9726Z" fill="white"/>
</svg>
