<svg width="512" height="512" viewBox="0 0 512 512" fill="none" xmlns="http://www.w3.org/2000/svg">
<g clip-path="url(#clip0)">
<path d="M21.3333 234.667H213.333C225.109 234.667 234.667 225.109 234.667 213.333V21.3333C234.667 9.55733 225.109 0 213.333 0H21.3333C9.55733 0 0 9.55733 0 21.3333V213.333C0 225.109 9.55733 234.667 21.3333 234.667Z" fill="#51CCEE"/>
<path d="M490.667 -7.62939e-06H298.667C286.891 -7.62939e-06 277.333 9.55733 277.333 21.3333V213.333C277.333 225.109 286.891 234.667 298.667 234.667H490.667C502.443 234.667 512 225.109 512 213.333V21.3333C512 9.55733 502.443 -7.62939e-06 490.667 -7.62939e-06Z" fill="#51CCEE"/>
<path d="M21.3333 512H213.333C225.109 512 234.667 502.443 234.667 490.667V298.667C234.667 286.891 225.109 277.333 213.333 277.333H21.3333C9.55733 277.333 0 286.891 0 298.667V490.667C0 502.443 9.55733 512 21.3333 512Z" fill="#51CCEE"/>
<path d="M490.667 277.333H298.667C286.891 277.333 277.333 286.891 277.333 298.667V490.667C277.333 502.443 286.891 512 298.667 512H490.667C502.443 512 512 502.443 512 490.667V298.667C512 286.891 502.443 277.333 490.667 277.333Z" fill="#51CCEE"/>
</g>
<defs>
<clipPath id="clip0">
<rect width="512" height="512" fill="white"/>
</clipPath>
</defs>
</svg>
