<svg width="512" height="512" viewBox="0 0 512 512" fill="none" xmlns="http://www.w3.org/2000/svg">
<g clip-path="url(#clip0)">
<path d="M106.667 0H21.3333C9.55733 0 0 9.55733 0 21.3333V106.667C0 118.443 9.55733 128 21.3333 128H106.667C118.443 128 128 118.443 128 106.667V21.3333C128 9.55733 118.443 0 106.667 0Z" fill="#51CCEE"/>
<path d="M490.667 -7.62939e-06H192C180.224 -7.62939e-06 170.667 9.55733 170.667 21.3333V106.667C170.667 118.443 180.224 128 192 128H490.667C502.443 128 512 118.443 512 106.667V21.3333C512 9.55733 502.443 -7.62939e-06 490.667 -7.62939e-06Z" fill="#51CCEE"/>
<path d="M106.667 192H21.3333C9.55733 192 0 201.557 0 213.333V298.667C0 310.443 9.55733 320 21.3333 320H106.667C118.443 320 128 310.443 128 298.667V213.333C128 201.557 118.443 192 106.667 192Z" fill="#51CCEE"/>
<path d="M490.667 192H192C180.224 192 170.667 201.557 170.667 213.333V298.667C170.667 310.443 180.224 320 192 320H490.667C502.443 320 512 310.443 512 298.667V213.333C512 201.557 502.443 192 490.667 192Z" fill="#51CCEE"/>
<path d="M106.667 384H21.3333C9.55733 384 0 393.557 0 405.333V490.667C0 502.443 9.55733 512 21.3333 512H106.667C118.443 512 128 502.443 128 490.667V405.333C128 393.557 118.443 384 106.667 384Z" fill="#51CCEE"/>
<path d="M490.667 384H192C180.224 384 170.667 393.557 170.667 405.333V490.667C170.667 502.443 180.224 512 192 512H490.667C502.443 512 512 502.443 512 490.667V405.333C512 393.557 502.443 384 490.667 384Z" fill="#51CCEE"/>
</g>
<defs>
<clipPath id="clip0">
<rect width="512" height="512" fill="white"/>
</clipPath>
</defs>
</svg>
