<svg width="55" height="55" viewBox="0 0 42 42" fill="none" xmlns="http://www.w3.org/2000/svg">
<rect width="42" height="42" rx="6" fill="none"/>
<path d="M20.9948 10.9999C26.5177 10.9983 31.0077 15.4829 31.0004 20.9932C30.9932 26.5277 26.5276 30.9992 21.0069 31.0001C15.4729 31.0008 10.9978 26.5215 11 20.9837C11.0022 15.4782 15.4839 11.0014 20.9948 10.9999ZM21.0067 11.7588C15.8646 11.7709 11.809 15.904 11.7594 20.9052C11.7089 25.9959 15.7968 30.2109 20.9608 30.2385C26.0673 30.266 30.2147 26.1431 30.2393 21.0276C30.2639 15.9255 26.1351 11.7803 21.0067 11.7586V11.7588Z" fill="#5FCDCD" stroke="#5FCDCD" stroke-width="1.2"/>
<path d="M22.5706 21.3664C22.5258 21.4585 22.4726 21.5679 22.4155 21.6853C22.4821 21.7033 22.5418 21.7182 22.601 21.7355C22.9552 21.8387 23.1683 22.103 23.264 22.4832C23.3056 22.6486 23.3119 22.8248 23.3362 22.9956C23.3413 23.0321 23.3446 23.0786 23.3656 23.1011C23.5921 23.3442 23.8219 23.5838 24.0515 23.8235C24.0747 23.8477 24.1024 23.8668 24.1494 23.9067C24.1806 23.8628 24.2062 23.8112 24.2442 23.7764C24.3349 23.6931 24.4254 23.6054 24.5281 23.5441C24.5815 23.5121 24.6602 23.5322 24.7275 23.529C24.7553 23.5277 24.7844 23.532 24.8109 23.5247C24.9076 23.4982 25.0027 23.4912 25.0943 23.5428C25.1857 23.5942 25.2206 23.6715 25.2007 23.7789C25.106 23.7052 25.0159 23.7176 24.9191 23.7972C24.9918 23.8297 25.0583 23.8511 25.1173 23.8876C25.2712 23.9826 25.2914 24.1762 25.1587 24.3245C25.1367 24.2094 25.1021 24.1088 24.9787 24.1059C24.9335 24.2756 24.9205 24.2853 24.76 24.2993C24.6044 24.3128 24.4489 24.3268 24.2938 24.3464C24.2411 24.3531 24.1895 24.3748 24.1386 24.3937C24.0625 24.4221 24.0203 24.4823 24.0109 24.5719C24.0062 24.6165 23.9983 24.6605 23.9911 24.7047C23.9776 24.7887 23.9315 24.843 23.8565 24.848C23.78 24.853 23.779 24.8976 23.7986 24.9553C23.8172 25.0102 23.8434 25.0618 23.8697 25.1229C23.7077 25.1209 23.5706 25.0693 23.4754 24.9208C23.4117 24.8216 23.4238 24.7355 23.4996 24.647C23.5848 24.5474 23.6718 24.4491 23.7494 24.3423C23.8188 24.2468 23.8156 24.1828 23.7551 24.0796C23.7345 24.0448 23.713 24.0077 23.6843 23.9822C23.4597 23.7823 23.2341 23.584 23.0071 23.3875C22.9314 23.3219 22.8445 23.3102 22.755 23.3505C22.6931 23.3783 22.6425 23.3629 22.5903 23.3203C22.3796 23.1489 22.1422 23.05 21.8848 23.0089C21.87 23.0065 21.8548 23.0073 21.8409 23.0065C22.0165 23.3276 22.118 23.682 22.2501 24.0205C22.4826 24.6157 22.7064 25.2151 22.9344 25.8127C23.0002 25.9851 23.0068 26.1548 22.8881 26.3001C22.7672 26.448 22.6141 26.5284 22.4315 26.4705C22.3575 26.447 22.2923 26.3889 22.2192 26.3441C22.2798 26.6196 22.1809 26.8087 21.9406 26.9049C21.7293 26.9895 21.5974 26.9426 21.4295 26.7265C21.3833 27.0343 21.2247 27.1839 20.948 27.1519C20.7273 27.1264 20.6229 26.9676 20.5918 26.7145C20.4363 26.989 20.2274 26.9843 20.0123 26.8732C19.8094 26.7682 19.7413 26.5775 19.8063 26.3285C19.7898 26.335 19.7814 26.3355 19.7767 26.3405C19.5994 26.5295 19.3821 26.5381 19.1887 26.3632C19.039 26.2278 18.9985 26.0457 19.0787 25.83C19.1968 25.5121 19.32 25.1966 19.4403 24.8797C19.6401 24.3534 19.8384 23.8265 20.0397 23.301C20.0781 23.2009 20.1278 23.106 20.1734 23.0056C20.0097 23.022 19.8451 23.068 19.6907 23.1511C19.5991 23.2003 19.5109 23.2597 19.4265 23.3231C19.3748 23.362 19.3271 23.3781 19.269 23.3521C19.1732 23.3089 19.0826 23.324 19.0024 23.3934C18.7817 23.5843 18.5625 23.7772 18.344 23.9714C18.3153 23.9969 18.2931 24.0333 18.2719 24.0674C18.2021 24.1798 18.1987 24.2458 18.2755 24.3522C18.3494 24.4545 18.433 24.5485 18.5151 24.6431C18.5966 24.7369 18.6073 24.8255 18.5368 24.9305C18.4419 25.0718 18.3077 25.1197 18.1497 25.1229C18.176 25.0598 18.2037 25.0039 18.2226 24.9446C18.2388 24.8935 18.2325 24.8534 18.1673 24.8487C18.0836 24.8428 18.038 24.7838 18.025 24.693C18.0245 24.6902 18.0242 24.6871 18.0237 24.6842C17.9791 24.4198 17.9529 24.384 17.7141 24.3446C17.5547 24.3184 17.3928 24.311 17.2319 24.297C17.1013 24.2855 17.0693 24.2551 17.0457 24.1133C16.9414 24.1062 16.9071 24.1433 16.8575 24.3225C16.786 24.2537 16.7595 24.1688 16.7763 24.0728C16.8091 23.8855 16.9566 23.8547 17.0897 23.8067C17.0221 23.717 16.9469 23.7082 16.814 23.7744C16.7922 23.6868 16.8208 23.6145 16.8848 23.575C16.9433 23.5389 17.0137 23.5139 17.0803 23.5087C17.1783 23.5009 17.2741 23.5351 17.3779 23.5148C17.4426 23.5022 17.5286 23.5554 17.5894 23.6036C17.6937 23.6861 17.7859 23.7879 17.8915 23.8896C17.9421 23.8439 18.0011 23.7976 18.0532 23.7429C18.249 23.5374 18.4438 23.3309 18.6352 23.1205C18.6617 23.0914 18.6786 23.0391 18.6807 22.9965C18.6913 22.7739 18.7179 22.5558 18.7955 22.3484C18.9175 22.0222 19.1292 21.8112 19.4406 21.7288C19.4925 21.7152 19.5442 21.701 19.6031 21.6852C19.5467 21.569 19.4936 21.4597 19.4419 21.3533C19.3517 21.4092 19.2655 21.4757 19.1704 21.5169C19.0975 21.5485 19.0136 21.5595 18.9344 21.56C18.7985 21.5611 18.7078 21.4674 18.6823 21.3197C18.6779 21.2943 18.6731 21.269 18.6666 21.233C18.6238 21.2704 18.5921 21.3092 18.5526 21.3305C18.4546 21.3831 18.3566 21.45 18.2522 21.4707C18.0614 21.5084 17.935 21.4101 17.8591 21.1901C17.8499 21.2278 17.8428 21.2508 17.8386 21.2745C17.7856 21.5751 17.6932 21.8567 17.5081 22.0906C17.3993 22.2281 17.264 22.3174 17.0973 22.3313C17.0371 22.3361 17.0255 22.3635 17.0167 22.4235C16.993 22.5878 16.9757 22.7568 16.9268 22.9125C16.8504 23.1567 16.6835 23.306 16.4592 23.3799C16.4057 23.3976 16.358 23.4402 16.3098 23.4752C16.2156 23.5439 16.1278 23.6255 16.0287 23.6836C15.7585 23.8423 15.4728 23.9568 15.1706 24.0151C15.124 24.0241 15.076 24.0237 15 24.03C15.2344 23.8193 15.2214 23.5448 15.2246 23.2814C15.2383 22.168 15.2459 21.0547 15.2574 19.9413C15.2636 19.3558 15.3363 18.7839 15.5636 18.248C15.8839 17.4929 16.4261 17.069 17.1605 16.9329C17.4006 16.8885 17.6376 16.8793 17.8667 16.9886C18.3167 17.2036 18.5382 17.7539 18.383 18.2694C18.3634 18.3344 18.3402 18.3984 18.3143 18.4608C18.2739 18.5584 18.2828 18.6501 18.345 18.7289C18.5072 18.9338 18.7064 19.0669 18.9546 19.0962C19.1014 19.1134 19.2142 19.0392 19.3122 18.9268C19.6694 18.5175 19.7911 18.0178 19.7402 17.4661C19.6883 16.9039 19.3559 16.5349 18.8509 16.4397C18.8215 16.4342 18.783 16.4225 18.7678 16.3986C18.6753 16.2535 18.5434 16.1958 18.3929 16.1864C18.2169 16.1755 18.0423 16.1839 17.8955 16.3317C17.841 16.2359 17.8056 16.1332 17.8051 16.0173C17.8046 15.9101 17.8577 15.8368 17.9421 15.8064C18.1128 15.7449 18.2865 15.6928 18.4606 15.644C18.5195 15.6275 18.5646 15.6232 18.5867 15.5394C18.6183 15.4208 18.72 15.3728 18.8189 15.3375C19.0427 15.2579 19.2705 15.2744 19.499 15.3086C19.6269 15.3278 19.7549 15.3492 19.8836 15.3577C20.1156 15.3729 20.341 15.3496 20.536 15.1561C20.541 15.4673 20.4031 15.6698 20.1876 15.8276C20.6531 16.4223 20.9079 17.1141 21.0096 17.8845C21.1105 17.1148 21.3642 16.4259 21.8182 15.8447C21.7348 15.7444 21.6465 15.6534 21.5749 15.5482C21.5016 15.4409 21.4792 15.31 21.4814 15.1901C21.592 15.239 21.701 15.305 21.8176 15.335C22.0498 15.3951 22.2823 15.3431 22.5154 15.3138C22.6931 15.2913 22.8758 15.2848 23.0534 15.3041C23.2243 15.3228 23.3976 15.3717 23.4543 15.6013C23.459 15.62 23.5024 15.6306 23.5294 15.6379C23.6704 15.6759 23.8149 15.701 23.9525 15.7503C24.24 15.8531 24.293 16.0477 24.1205 16.3306C23.8882 16.1021 23.4521 16.1361 23.2529 16.3934C23.2291 16.4239 23.1798 16.4356 23.1402 16.4444C22.811 16.5183 22.5536 16.7058 22.3851 17.0323C22.2968 17.2035 22.2795 17.3953 22.2732 17.5875C22.2567 18.0892 22.3718 18.5385 22.6918 18.9119C22.8409 19.0859 23.0084 19.1361 23.2113 19.0667C23.3829 19.0079 23.5274 18.902 23.6514 18.7605C23.7367 18.6633 23.7476 18.5692 23.6951 18.4402C23.5761 18.1477 23.5353 17.8478 23.6571 17.5463C23.8269 17.1252 24.1291 16.8989 24.5412 16.9047C25.0918 16.9124 25.5888 17.106 25.9972 17.5321C26.3254 17.8744 26.5143 18.3069 26.6294 18.7832C26.7256 19.1816 26.7589 19.5884 26.761 20.0003C26.7656 20.9042 26.773 21.8081 26.7816 22.7121C26.784 22.9634 26.7947 23.2145 26.8014 23.4659C26.8071 23.6735 26.8375 23.8706 27 24.0106C26.9966 24.0183 26.9932 24.0262 26.99 24.034C26.9044 24.0196 26.8178 24.0111 26.7337 23.9894C26.4171 23.9074 26.1117 23.788 25.8417 23.5849C25.7067 23.4833 25.5747 23.3878 25.4229 23.3147C25.1605 23.1885 25.0601 22.922 25.018 22.625C25.0075 22.5513 25.009 22.4755 24.9962 22.4023C24.9918 22.377 24.9629 22.3399 24.9425 22.3378C24.698 22.3119 24.5315 22.1583 24.4062 21.9383C24.2793 21.7155 24.2075 21.4692 24.1688 21.2055C24.1583 21.2125 24.1491 21.2149 24.1469 21.2206C24.066 21.4342 23.9126 21.5279 23.7129 21.4608C23.6126 21.4272 23.5223 21.3558 23.429 21.2988C23.4042 21.2837 23.3847 21.2585 23.3575 21.2332C23.3507 21.2542 23.3452 21.2647 23.3442 21.2754C23.3258 21.5124 23.1585 21.6086 22.9492 21.5482C22.82 21.5108 22.7009 21.4302 22.5704 21.3659L22.5706 21.3664Z" fill="#5FCDCD"/>
</svg>
